<mxfile host="app.diagrams.net" agent="Mozilla/5.0 (X11; Ubuntu; Linux x86_64; rv:133.0) Gecko/20100101 Firefox/133.0" version="25.0.3">
  <diagram name="Page-1" id="3ejCCfobpjxJj5Rh6vsO">
    <mxGraphModel dx="2022" dy="749" grid="1" gridSize="10" guides="1" tooltips="1" connect="1" arrows="1" fold="1" page="1" pageScale="1" pageWidth="850" pageHeight="1100" math="0" shadow="0">
      <root>
        <mxCell id="0" />
        <mxCell id="1" parent="0" />
        <mxCell id="_EbamXniTD4W-Q94roid-1" value="POLITIC" style="rounded=1;whiteSpace=wrap;html=1;" vertex="1" parent="1">
          <mxGeometry x="420" y="340" width="120" height="60" as="geometry" />
        </mxCell>
        <mxCell id="_EbamXniTD4W-Q94roid-2" value="AFFILIAT" style="rhombus;whiteSpace=wrap;html=1;" vertex="1" parent="1">
          <mxGeometry x="120" y="330" width="80" height="80" as="geometry" />
        </mxCell>
        <mxCell id="_EbamXniTD4W-Q94roid-3" value="aaffiliacioPartit" style="ellipse;whiteSpace=wrap;html=1;" vertex="1" parent="1">
          <mxGeometry x="310" y="220" width="90" height="60" as="geometry" />
        </mxCell>
        <mxCell id="_EbamXniTD4W-Q94roid-6" value="dataInici" style="ellipse;whiteSpace=wrap;html=1;" vertex="1" parent="1">
          <mxGeometry x="435" y="220" width="90" height="60" as="geometry" />
        </mxCell>
        <mxCell id="_EbamXniTD4W-Q94roid-7" value="dataFi" style="ellipse;whiteSpace=wrap;html=1;" vertex="1" parent="1">
          <mxGeometry x="560" y="220" width="90" height="60" as="geometry" />
        </mxCell>
        <mxCell id="_EbamXniTD4W-Q94roid-8" value="idHistoric" style="ellipse;whiteSpace=wrap;html=1;" vertex="1" parent="1">
          <mxGeometry x="310" y="450" width="90" height="60" as="geometry" />
        </mxCell>
        <mxCell id="_EbamXniTD4W-Q94roid-9" value="ELECCIO" style="rounded=1;whiteSpace=wrap;html=1;" vertex="1" parent="1">
          <mxGeometry x="420" y="680" width="120" height="60" as="geometry" />
        </mxCell>
        <mxCell id="_EbamXniTD4W-Q94roid-12" value="dataInici" style="ellipse;whiteSpace=wrap;html=1;" vertex="1" parent="1">
          <mxGeometry x="320" y="570" width="90" height="60" as="geometry" />
        </mxCell>
        <mxCell id="_EbamXniTD4W-Q94roid-13" value="dataFi" style="ellipse;whiteSpace=wrap;html=1;" vertex="1" parent="1">
          <mxGeometry x="435" y="570" width="90" height="60" as="geometry" />
        </mxCell>
        <mxCell id="_EbamXniTD4W-Q94roid-14" value="&lt;u&gt;idEleccio&lt;/u&gt;" style="ellipse;whiteSpace=wrap;html=1;" vertex="1" parent="1">
          <mxGeometry x="200" y="570" width="90" height="60" as="geometry" />
        </mxCell>
        <mxCell id="_EbamXniTD4W-Q94roid-16" value="escons" style="ellipse;whiteSpace=wrap;html=1;" vertex="1" parent="1">
          <mxGeometry x="550" y="570" width="90" height="60" as="geometry" />
        </mxCell>
        <mxCell id="_EbamXniTD4W-Q94roid-17" value="circumscripcio" style="ellipse;whiteSpace=wrap;html=1;" vertex="1" parent="1">
          <mxGeometry x="670" y="570" width="90" height="60" as="geometry" />
        </mxCell>
        <mxCell id="_EbamXniTD4W-Q94roid-19" value="PARTIT" style="rounded=1;whiteSpace=wrap;html=1;" vertex="1" parent="1">
          <mxGeometry x="-220" y="340" width="120" height="60" as="geometry" />
        </mxCell>
        <mxCell id="_EbamXniTD4W-Q94roid-26" value="ideologia" style="ellipse;whiteSpace=wrap;html=1;" vertex="1" parent="1">
          <mxGeometry x="-90" y="220" width="90" height="60" as="geometry" />
        </mxCell>
        <mxCell id="_EbamXniTD4W-Q94roid-29" value="&lt;i&gt;idPartit&lt;/i&gt;" style="ellipse;whiteSpace=wrap;html=1;" vertex="1" parent="1">
          <mxGeometry x="-205" y="220" width="90" height="60" as="geometry" />
        </mxCell>
        <mxCell id="_EbamXniTD4W-Q94roid-30" value="nom" style="ellipse;whiteSpace=wrap;html=1;" vertex="1" parent="1">
          <mxGeometry x="-320" y="220" width="90" height="60" as="geometry" />
        </mxCell>
        <mxCell id="_EbamXniTD4W-Q94roid-32" value="" style="endArrow=none;html=1;rounded=0;entryX=0;entryY=0.5;entryDx=0;entryDy=0;exitX=1;exitY=0.5;exitDx=0;exitDy=0;" edge="1" parent="1" source="_EbamXniTD4W-Q94roid-2" target="_EbamXniTD4W-Q94roid-1">
          <mxGeometry width="50" height="50" relative="1" as="geometry">
            <mxPoint x="130" y="570" as="sourcePoint" />
            <mxPoint x="180" y="520" as="targetPoint" />
          </mxGeometry>
        </mxCell>
        <mxCell id="_EbamXniTD4W-Q94roid-33" value="" style="endArrow=none;html=1;rounded=0;entryX=0;entryY=0.5;entryDx=0;entryDy=0;exitX=1;exitY=0.5;exitDx=0;exitDy=0;" edge="1" parent="1" source="_EbamXniTD4W-Q94roid-19" target="_EbamXniTD4W-Q94roid-2">
          <mxGeometry width="50" height="50" relative="1" as="geometry">
            <mxPoint x="210" y="380" as="sourcePoint" />
            <mxPoint x="430" y="380" as="targetPoint" />
          </mxGeometry>
        </mxCell>
        <mxCell id="_EbamXniTD4W-Q94roid-36" value="nom" style="ellipse;whiteSpace=wrap;html=1;" vertex="1" parent="1">
          <mxGeometry x="435" y="450" width="90" height="60" as="geometry" />
        </mxCell>
        <mxCell id="_EbamXniTD4W-Q94roid-37" value="idPolitic" style="ellipse;whiteSpace=wrap;html=1;" vertex="1" parent="1">
          <mxGeometry x="560" y="450" width="90" height="60" as="geometry" />
        </mxCell>
        <mxCell id="_EbamXniTD4W-Q94roid-38" value="" style="endArrow=none;html=1;rounded=0;entryX=0.5;entryY=1;entryDx=0;entryDy=0;exitX=0.25;exitY=0;exitDx=0;exitDy=0;" edge="1" parent="1" source="_EbamXniTD4W-Q94roid-1" target="_EbamXniTD4W-Q94roid-3">
          <mxGeometry width="50" height="50" relative="1" as="geometry">
            <mxPoint x="450" y="470" as="sourcePoint" />
            <mxPoint x="500" y="420" as="targetPoint" />
            <Array as="points">
              <mxPoint x="450" y="320" />
              <mxPoint x="355" y="320" />
            </Array>
          </mxGeometry>
        </mxCell>
        <mxCell id="_EbamXniTD4W-Q94roid-39" value="" style="endArrow=none;html=1;rounded=0;entryX=0.5;entryY=1;entryDx=0;entryDy=0;exitX=0.5;exitY=0;exitDx=0;exitDy=0;" edge="1" parent="1" source="_EbamXniTD4W-Q94roid-1" target="_EbamXniTD4W-Q94roid-6">
          <mxGeometry width="50" height="50" relative="1" as="geometry">
            <mxPoint x="460" y="350" as="sourcePoint" />
            <mxPoint x="365" y="290" as="targetPoint" />
          </mxGeometry>
        </mxCell>
        <mxCell id="_EbamXniTD4W-Q94roid-40" value="" style="endArrow=none;html=1;rounded=0;exitX=0.75;exitY=0;exitDx=0;exitDy=0;entryX=0.5;entryY=1;entryDx=0;entryDy=0;" edge="1" parent="1" source="_EbamXniTD4W-Q94roid-1" target="_EbamXniTD4W-Q94roid-7">
          <mxGeometry width="50" height="50" relative="1" as="geometry">
            <mxPoint x="490" y="350" as="sourcePoint" />
            <mxPoint x="610" y="290" as="targetPoint" />
            <Array as="points">
              <mxPoint x="510" y="320" />
              <mxPoint x="605" y="320" />
            </Array>
          </mxGeometry>
        </mxCell>
        <mxCell id="_EbamXniTD4W-Q94roid-41" value="" style="endArrow=none;html=1;rounded=0;exitX=0.75;exitY=1;exitDx=0;exitDy=0;entryX=0.5;entryY=0;entryDx=0;entryDy=0;" edge="1" parent="1" source="_EbamXniTD4W-Q94roid-1" target="_EbamXniTD4W-Q94roid-37">
          <mxGeometry width="50" height="50" relative="1" as="geometry">
            <mxPoint x="520" y="350" as="sourcePoint" />
            <mxPoint x="620" y="300" as="targetPoint" />
            <Array as="points">
              <mxPoint x="510" y="420" />
              <mxPoint x="605" y="420" />
            </Array>
          </mxGeometry>
        </mxCell>
        <mxCell id="_EbamXniTD4W-Q94roid-42" value="" style="endArrow=none;html=1;rounded=0;exitX=0.5;exitY=1;exitDx=0;exitDy=0;entryX=0.5;entryY=0;entryDx=0;entryDy=0;" edge="1" parent="1" source="_EbamXniTD4W-Q94roid-1" target="_EbamXniTD4W-Q94roid-36">
          <mxGeometry width="50" height="50" relative="1" as="geometry">
            <mxPoint x="520" y="410" as="sourcePoint" />
            <mxPoint x="615" y="460" as="targetPoint" />
          </mxGeometry>
        </mxCell>
        <mxCell id="_EbamXniTD4W-Q94roid-43" value="" style="endArrow=none;html=1;rounded=0;exitX=0.25;exitY=1;exitDx=0;exitDy=0;entryX=0.5;entryY=0;entryDx=0;entryDy=0;" edge="1" parent="1" source="_EbamXniTD4W-Q94roid-1" target="_EbamXniTD4W-Q94roid-8">
          <mxGeometry width="50" height="50" relative="1" as="geometry">
            <mxPoint x="490" y="410" as="sourcePoint" />
            <mxPoint x="490" y="460" as="targetPoint" />
            <Array as="points">
              <mxPoint x="450" y="420" />
              <mxPoint x="355" y="420" />
            </Array>
          </mxGeometry>
        </mxCell>
        <mxCell id="_EbamXniTD4W-Q94roid-44" value="" style="endArrow=none;html=1;rounded=0;entryX=0.5;entryY=1;entryDx=0;entryDy=0;exitX=0.25;exitY=0;exitDx=0;exitDy=0;" edge="1" parent="1" source="_EbamXniTD4W-Q94roid-19" target="_EbamXniTD4W-Q94roid-30">
          <mxGeometry width="50" height="50" relative="1" as="geometry">
            <mxPoint x="-250" y="380" as="sourcePoint" />
            <mxPoint x="-200" y="330" as="targetPoint" />
            <Array as="points">
              <mxPoint x="-190" y="320" />
              <mxPoint x="-275" y="320" />
            </Array>
          </mxGeometry>
        </mxCell>
        <mxCell id="_EbamXniTD4W-Q94roid-45" value="" style="endArrow=none;html=1;rounded=0;entryX=0.5;entryY=1;entryDx=0;entryDy=0;exitX=0.5;exitY=0;exitDx=0;exitDy=0;" edge="1" parent="1" source="_EbamXniTD4W-Q94roid-19" target="_EbamXniTD4W-Q94roid-29">
          <mxGeometry width="50" height="50" relative="1" as="geometry">
            <mxPoint x="-180" y="350" as="sourcePoint" />
            <mxPoint x="-265" y="290" as="targetPoint" />
          </mxGeometry>
        </mxCell>
        <mxCell id="_EbamXniTD4W-Q94roid-46" value="" style="endArrow=none;html=1;rounded=0;entryX=0.5;entryY=1;entryDx=0;entryDy=0;exitX=0.75;exitY=0;exitDx=0;exitDy=0;" edge="1" parent="1" source="_EbamXniTD4W-Q94roid-19" target="_EbamXniTD4W-Q94roid-26">
          <mxGeometry width="50" height="50" relative="1" as="geometry">
            <mxPoint x="-150" y="350" as="sourcePoint" />
            <mxPoint x="-150" y="290" as="targetPoint" />
            <Array as="points">
              <mxPoint x="-130" y="320" />
              <mxPoint x="-45" y="320" />
            </Array>
          </mxGeometry>
        </mxCell>
        <mxCell id="_EbamXniTD4W-Q94roid-47" value="" style="endArrow=none;html=1;rounded=0;entryX=0.5;entryY=1;entryDx=0;entryDy=0;exitX=0;exitY=0.25;exitDx=0;exitDy=0;" edge="1" parent="1" source="_EbamXniTD4W-Q94roid-9" target="_EbamXniTD4W-Q94roid-14">
          <mxGeometry width="50" height="50" relative="1" as="geometry">
            <mxPoint x="430" y="730" as="sourcePoint" />
            <mxPoint x="480" y="680" as="targetPoint" />
            <Array as="points">
              <mxPoint x="245" y="695" />
            </Array>
          </mxGeometry>
        </mxCell>
        <mxCell id="_EbamXniTD4W-Q94roid-48" value="" style="endArrow=none;html=1;rounded=0;entryX=0.5;entryY=1;entryDx=0;entryDy=0;exitX=0.25;exitY=0;exitDx=0;exitDy=0;" edge="1" parent="1" source="_EbamXniTD4W-Q94roid-9" target="_EbamXniTD4W-Q94roid-12">
          <mxGeometry width="50" height="50" relative="1" as="geometry">
            <mxPoint x="430" y="705" as="sourcePoint" />
            <mxPoint x="255" y="640" as="targetPoint" />
            <Array as="points">
              <mxPoint x="450" y="660" />
              <mxPoint x="365" y="660" />
            </Array>
          </mxGeometry>
        </mxCell>
        <mxCell id="_EbamXniTD4W-Q94roid-49" value="" style="endArrow=none;html=1;rounded=0;entryX=0.5;entryY=1;entryDx=0;entryDy=0;" edge="1" parent="1" source="_EbamXniTD4W-Q94roid-9" target="_EbamXniTD4W-Q94roid-13">
          <mxGeometry width="50" height="50" relative="1" as="geometry">
            <mxPoint x="460" y="690" as="sourcePoint" />
            <mxPoint x="375" y="640" as="targetPoint" />
          </mxGeometry>
        </mxCell>
        <mxCell id="_EbamXniTD4W-Q94roid-50" value="" style="endArrow=none;html=1;rounded=0;entryX=0.5;entryY=1;entryDx=0;entryDy=0;exitX=0.75;exitY=0;exitDx=0;exitDy=0;" edge="1" parent="1" source="_EbamXniTD4W-Q94roid-9" target="_EbamXniTD4W-Q94roid-16">
          <mxGeometry width="50" height="50" relative="1" as="geometry">
            <mxPoint x="490" y="690" as="sourcePoint" />
            <mxPoint x="490" y="640" as="targetPoint" />
            <Array as="points">
              <mxPoint x="510" y="660" />
              <mxPoint x="595" y="660" />
            </Array>
          </mxGeometry>
        </mxCell>
        <mxCell id="_EbamXniTD4W-Q94roid-51" value="" style="endArrow=none;html=1;rounded=0;entryX=0.5;entryY=1;entryDx=0;entryDy=0;exitX=1;exitY=0.25;exitDx=0;exitDy=0;" edge="1" parent="1" source="_EbamXniTD4W-Q94roid-9" target="_EbamXniTD4W-Q94roid-17">
          <mxGeometry width="50" height="50" relative="1" as="geometry">
            <mxPoint x="520" y="690" as="sourcePoint" />
            <mxPoint x="605" y="640" as="targetPoint" />
            <Array as="points">
              <mxPoint x="715" y="695" />
            </Array>
          </mxGeometry>
        </mxCell>
        <mxCell id="_EbamXniTD4W-Q94roid-54" value="RESULTAT" style="rounded=1;whiteSpace=wrap;html=1;" vertex="1" parent="1">
          <mxGeometry x="420" y="1000" width="120" height="60" as="geometry" />
        </mxCell>
        <mxCell id="_EbamXniTD4W-Q94roid-55" value="PRESENTA" style="rhombus;whiteSpace=wrap;html=1;" vertex="1" parent="1">
          <mxGeometry x="440" y="830" width="80" height="80" as="geometry" />
        </mxCell>
        <mxCell id="_EbamXniTD4W-Q94roid-58" value="GENERA" style="rhombus;whiteSpace=wrap;html=1;" vertex="1" parent="1">
          <mxGeometry x="-460" y="990" width="80" height="80" as="geometry" />
        </mxCell>
        <mxCell id="_EbamXniTD4W-Q94roid-59" value="escons" style="ellipse;whiteSpace=wrap;html=1;" vertex="1" parent="1">
          <mxGeometry x="435" y="1110" width="90" height="60" as="geometry" />
        </mxCell>
        <mxCell id="_EbamXniTD4W-Q94roid-61" value="" style="endArrow=none;html=1;rounded=0;entryX=0.5;entryY=0;entryDx=0;entryDy=0;exitX=0;exitY=0.5;exitDx=0;exitDy=0;" edge="1" parent="1" source="_EbamXniTD4W-Q94roid-19" target="_EbamXniTD4W-Q94roid-58">
          <mxGeometry width="50" height="50" relative="1" as="geometry">
            <mxPoint x="-360" y="370" as="sourcePoint" />
            <mxPoint x="-240" y="790" as="targetPoint" />
            <Array as="points">
              <mxPoint x="-420" y="370" />
            </Array>
          </mxGeometry>
        </mxCell>
        <mxCell id="_EbamXniTD4W-Q94roid-62" value="" style="endArrow=none;html=1;rounded=0;exitX=1;exitY=0.5;exitDx=0;exitDy=0;entryX=0;entryY=0.5;entryDx=0;entryDy=0;" edge="1" parent="1" source="_EbamXniTD4W-Q94roid-58" target="_EbamXniTD4W-Q94roid-54">
          <mxGeometry width="50" height="50" relative="1" as="geometry">
            <mxPoint x="-290" y="840" as="sourcePoint" />
            <mxPoint x="280" y="1030" as="targetPoint" />
          </mxGeometry>
        </mxCell>
        <mxCell id="_EbamXniTD4W-Q94roid-63" value="" style="endArrow=none;html=1;rounded=0;entryX=0.5;entryY=1;entryDx=0;entryDy=0;exitX=0.5;exitY=0;exitDx=0;exitDy=0;" edge="1" parent="1" source="_EbamXniTD4W-Q94roid-55" target="_EbamXniTD4W-Q94roid-9">
          <mxGeometry width="50" height="50" relative="1" as="geometry">
            <mxPoint x="370" y="870" as="sourcePoint" />
            <mxPoint x="420" y="820" as="targetPoint" />
          </mxGeometry>
        </mxCell>
        <mxCell id="_EbamXniTD4W-Q94roid-64" value="" style="endArrow=none;html=1;rounded=0;entryX=0.5;entryY=0;entryDx=0;entryDy=0;exitX=0.5;exitY=1;exitDx=0;exitDy=0;" edge="1" parent="1" source="_EbamXniTD4W-Q94roid-55" target="_EbamXniTD4W-Q94roid-54">
          <mxGeometry width="50" height="50" relative="1" as="geometry">
            <mxPoint x="370" y="870" as="sourcePoint" />
            <mxPoint x="420" y="820" as="targetPoint" />
          </mxGeometry>
        </mxCell>
        <mxCell id="_EbamXniTD4W-Q94roid-65" value="" style="endArrow=none;html=1;rounded=0;entryX=0.5;entryY=1;entryDx=0;entryDy=0;exitX=0.5;exitY=0;exitDx=0;exitDy=0;" edge="1" parent="1" source="_EbamXniTD4W-Q94roid-59" target="_EbamXniTD4W-Q94roid-54">
          <mxGeometry width="50" height="50" relative="1" as="geometry">
            <mxPoint x="370" y="1170" as="sourcePoint" />
            <mxPoint x="420" y="1120" as="targetPoint" />
          </mxGeometry>
        </mxCell>
        <mxCell id="_EbamXniTD4W-Q94roid-66" value="CANDIDATURA" style="rounded=1;whiteSpace=wrap;html=1;" vertex="1" parent="1">
          <mxGeometry x="-220" y="680" width="120" height="60" as="geometry" />
        </mxCell>
        <mxCell id="_EbamXniTD4W-Q94roid-67" value="PARTICIPA" style="rhombus;whiteSpace=wrap;html=1;" vertex="1" parent="1">
          <mxGeometry x="-40" y="670" width="80" height="80" as="geometry" />
        </mxCell>
        <mxCell id="_EbamXniTD4W-Q94roid-69" value="" style="endArrow=none;html=1;rounded=0;entryX=0;entryY=0.75;entryDx=0;entryDy=0;exitX=0.5;exitY=0;exitDx=0;exitDy=0;" edge="1" parent="1" source="_EbamXniTD4W-Q94roid-67" target="_EbamXniTD4W-Q94roid-1">
          <mxGeometry width="50" height="50" relative="1" as="geometry">
            <mxPoint x="260" y="560" as="sourcePoint" />
            <mxPoint x="360" y="400" as="targetPoint" />
            <Array as="points">
              <mxPoint y="520" />
              <mxPoint x="280" y="385" />
            </Array>
          </mxGeometry>
        </mxCell>
        <mxCell id="_EbamXniTD4W-Q94roid-70" value="PERTANY" style="rhombus;whiteSpace=wrap;html=1;" vertex="1" parent="1">
          <mxGeometry x="-200" y="510" width="80" height="80" as="geometry" />
        </mxCell>
        <mxCell id="_EbamXniTD4W-Q94roid-71" value="" style="endArrow=none;html=1;rounded=0;exitX=0.5;exitY=0;exitDx=0;exitDy=0;" edge="1" parent="1" source="_EbamXniTD4W-Q94roid-66" target="_EbamXniTD4W-Q94roid-70">
          <mxGeometry width="50" height="50" relative="1" as="geometry">
            <mxPoint x="260" y="690" as="sourcePoint" />
            <mxPoint x="310" y="640" as="targetPoint" />
          </mxGeometry>
        </mxCell>
        <mxCell id="_EbamXniTD4W-Q94roid-72" value="" style="endArrow=none;html=1;rounded=0;exitX=0.5;exitY=0;exitDx=0;exitDy=0;entryX=0.5;entryY=1;entryDx=0;entryDy=0;" edge="1" parent="1" source="_EbamXniTD4W-Q94roid-70" target="_EbamXniTD4W-Q94roid-19">
          <mxGeometry width="50" height="50" relative="1" as="geometry">
            <mxPoint x="-150" y="690" as="sourcePoint" />
            <mxPoint x="-150" y="600" as="targetPoint" />
          </mxGeometry>
        </mxCell>
        <mxCell id="_EbamXniTD4W-Q94roid-73" value="" style="endArrow=none;html=1;rounded=0;exitX=1;exitY=0.5;exitDx=0;exitDy=0;entryX=0;entryY=0.5;entryDx=0;entryDy=0;" edge="1" parent="1" source="_EbamXniTD4W-Q94roid-66" target="_EbamXniTD4W-Q94roid-67">
          <mxGeometry width="50" height="50" relative="1" as="geometry">
            <mxPoint x="-150" y="690" as="sourcePoint" />
            <mxPoint x="-150" y="600" as="targetPoint" />
          </mxGeometry>
        </mxCell>
        <mxCell id="_EbamXniTD4W-Q94roid-74" value="" style="endArrow=none;html=1;rounded=0;entryX=0;entryY=0.5;entryDx=0;entryDy=0;exitX=1;exitY=0.5;exitDx=0;exitDy=0;" edge="1" parent="1" source="_EbamXniTD4W-Q94roid-75" target="_EbamXniTD4W-Q94roid-9">
          <mxGeometry width="50" height="50" relative="1" as="geometry">
            <mxPoint x="260" y="740" as="sourcePoint" />
            <mxPoint x="260" y="830" as="targetPoint" />
            <Array as="points">
              <mxPoint x="-60" y="870" />
              <mxPoint x="350" y="710" />
            </Array>
          </mxGeometry>
        </mxCell>
        <mxCell id="_EbamXniTD4W-Q94roid-75" value="PRESENTA" style="rhombus;whiteSpace=wrap;html=1;" vertex="1" parent="1">
          <mxGeometry x="-200" y="830" width="80" height="80" as="geometry" />
        </mxCell>
        <mxCell id="_EbamXniTD4W-Q94roid-76" value="" style="endArrow=none;html=1;rounded=0;exitX=0.5;exitY=0;exitDx=0;exitDy=0;entryX=0.5;entryY=1;entryDx=0;entryDy=0;" edge="1" parent="1" source="_EbamXniTD4W-Q94roid-75" target="_EbamXniTD4W-Q94roid-66">
          <mxGeometry width="50" height="50" relative="1" as="geometry">
            <mxPoint x="260" y="690" as="sourcePoint" />
            <mxPoint x="310" y="640" as="targetPoint" />
          </mxGeometry>
        </mxCell>
        <mxCell id="_EbamXniTD4W-Q94roid-78" value="1" style="text;html=1;align=center;verticalAlign=middle;whiteSpace=wrap;rounded=0;" vertex="1" parent="1">
          <mxGeometry x="480" y="740" width="60" height="30" as="geometry" />
        </mxCell>
        <mxCell id="_EbamXniTD4W-Q94roid-79" value="N" style="text;html=1;align=center;verticalAlign=middle;whiteSpace=wrap;rounded=0;" vertex="1" parent="1">
          <mxGeometry x="480" y="970" width="60" height="30" as="geometry" />
        </mxCell>
        <mxCell id="_EbamXniTD4W-Q94roid-81" value="N" style="text;html=1;align=center;verticalAlign=middle;whiteSpace=wrap;rounded=0;" vertex="1" parent="1">
          <mxGeometry x="360" y="710" width="60" height="30" as="geometry" />
        </mxCell>
        <mxCell id="_EbamXniTD4W-Q94roid-82" value="1" style="text;html=1;align=center;verticalAlign=middle;whiteSpace=wrap;rounded=0;" vertex="1" parent="1">
          <mxGeometry x="-160" y="740" width="60" height="30" as="geometry" />
        </mxCell>
        <mxCell id="_EbamXniTD4W-Q94roid-83" value="N" style="text;html=1;align=center;verticalAlign=middle;whiteSpace=wrap;rounded=0;" vertex="1" parent="1">
          <mxGeometry x="-160" y="650" width="60" height="30" as="geometry" />
        </mxCell>
        <mxCell id="_EbamXniTD4W-Q94roid-84" value="N" style="text;html=1;align=center;verticalAlign=middle;whiteSpace=wrap;rounded=0;" vertex="1" parent="1">
          <mxGeometry x="360" y="340" width="60" height="30" as="geometry" />
        </mxCell>
        <mxCell id="_EbamXniTD4W-Q94roid-85" value="1" style="text;html=1;align=center;verticalAlign=middle;whiteSpace=wrap;rounded=0;" vertex="1" parent="1">
          <mxGeometry x="-100" y="340" width="60" height="30" as="geometry" />
        </mxCell>
        <mxCell id="_EbamXniTD4W-Q94roid-88" value="&lt;u&gt;idCandidatura&lt;/u&gt;" style="ellipse;whiteSpace=wrap;html=1;" vertex="1" parent="1">
          <mxGeometry x="-370" y="680" width="90" height="60" as="geometry" />
        </mxCell>
        <mxCell id="_EbamXniTD4W-Q94roid-90" value="" style="endArrow=none;html=1;rounded=0;exitX=1;exitY=0.5;exitDx=0;exitDy=0;entryX=0;entryY=0.5;entryDx=0;entryDy=0;" edge="1" parent="1" source="_EbamXniTD4W-Q94roid-88" target="_EbamXniTD4W-Q94roid-66">
          <mxGeometry width="50" height="50" relative="1" as="geometry">
            <mxPoint x="130" y="650" as="sourcePoint" />
            <mxPoint x="180" y="600" as="targetPoint" />
          </mxGeometry>
        </mxCell>
        <mxCell id="_EbamXniTD4W-Q94roid-91" value="1" style="text;html=1;align=center;verticalAlign=middle;whiteSpace=wrap;rounded=0;" vertex="1" parent="1">
          <mxGeometry x="-160" y="400" width="60" height="30" as="geometry" />
        </mxCell>
        <mxCell id="_EbamXniTD4W-Q94roid-92" value="1" style="text;html=1;align=center;verticalAlign=middle;whiteSpace=wrap;rounded=0;" vertex="1" parent="1">
          <mxGeometry x="-80" y="710" width="60" height="30" as="geometry" />
        </mxCell>
      </root>
    </mxGraphModel>
  </diagram>
</mxfile>
